<svg width="671" height="331" viewBox="0 0 671 331" fill="none" xmlns="http://www.w3.org/2000/svg">
<path d="M499.394 138.989L186.664 134.176C194.644 88.8497 236.916 -1.33006 342.165 0.563704C473.727 2.9309 499.421 121.717 499.394 138.989Z" fill="#E1F8FF"/>
<path d="M186.664 134.176C107.192 137.305 7.56051 190.003 1.0696 202.971L669.679 204.029C669.693 195.368 576.965 148.814 499.394 138.989L186.664 134.176Z" fill="#EFD89C"/>
<path d="M1.0696 202.971L669.679 204.029C665.355 210.475 596.324 222.71 501.445 227.512C380.728 231.662 312.156 231.251 188.709 227.017C110.167 225.996 11.8332 215.917 1.0696 202.971Z" fill="#7E6C5A"/>
<path d="M501.445 227.512C380.728 231.662 312.156 231.251 188.709 227.017C188.709 227.017 175.692 252.904 186.487 246.445C197.281 239.985 490.606 240.449 499.223 246.939C507.84 253.43 501.445 227.512 501.445 227.512Z" fill="#555A66"/>
<path d="M1.0696 202.971C7.56051 190.003 107.192 137.305 186.664 134.176M1.0696 202.971C1.0696 202.971 408.571 203.616 669.679 204.029M1.0696 202.971C11.8332 215.917 110.167 225.996 188.709 227.017M1.0696 202.971L669.679 204.029M186.664 134.176L499.394 138.989M186.664 134.176C194.644 88.8496 236.916 -1.33006 342.165 0.563704C473.727 2.9309 499.421 121.717 499.394 138.989M499.394 138.989C576.965 148.814 669.693 195.368 669.679 204.029M669.679 204.029C665.355 210.475 596.324 222.71 501.445 227.512M188.709 227.017C312.156 231.251 380.728 231.662 501.445 227.512M188.709 227.017C188.709 227.017 175.692 252.904 186.487 246.445C197.281 239.985 490.606 240.449 499.223 246.939C507.84 253.43 501.445 227.512 501.445 227.512M219.057 108.319C227.002 85.3026 258.423 37.1344 320.553 28.5967" stroke="#555A66"/>
<path d="M487.902 270.67C487.903 270.668 487.902 270.668 487.902 270.67C487.902 270.673 487.903 270.673 487.902 270.67ZM487.902 270.67C487.901 270.662 487.89 270.626 487.831 270.56C487.75 270.47 487.605 270.355 487.369 270.224C486.899 269.962 486.167 269.687 485.16 269.408C483.155 268.852 480.174 268.308 476.307 267.786C468.578 266.743 457.382 265.796 443.531 264.993C415.834 263.387 377.562 262.36 335.282 262.293C293.002 262.226 254.727 263.132 227.024 264.65C213.172 265.409 201.972 266.321 194.24 267.34C190.371 267.849 187.389 268.383 185.382 268.933C184.374 269.209 183.641 269.482 183.17 269.742C182.934 269.873 182.788 269.987 182.707 270.077C182.648 270.143 182.637 270.179 182.636 270.187M487.902 270.67C487.901 270.679 487.89 270.715 487.831 270.78C487.75 270.871 487.604 270.985 487.368 271.115C486.897 271.376 486.164 271.649 485.156 271.925C483.149 272.474 480.167 273.008 476.298 273.518C468.566 274.536 457.366 275.448 443.513 276.208C415.811 277.726 377.536 278.632 335.256 278.565C292.976 278.498 254.704 277.471 227.007 275.865C213.156 275.062 201.96 274.115 194.231 273.072C190.364 272.55 187.383 272.006 185.378 271.45C184.371 271.171 183.639 270.896 183.168 270.634C182.933 270.503 182.788 270.388 182.707 270.298C182.648 270.232 182.637 270.196 182.636 270.187M182.636 270.187C182.636 270.187 182.636 270.188 182.636 270.188M182.636 270.187C182.636 270.187 182.636 270.187 182.636 270.187M182.636 270.188L182.636 270.185C182.636 270.185 182.636 270.186 182.636 270.187M182.636 270.188C182.636 270.188 182.636 270.187 182.636 270.187C182.636 270.187 182.636 270.187 182.636 270.187M182.636 270.188L182.636 270.187M182.636 270.188C182.636 270.189 182.636 270.189 182.636 270.189L182.636 270.188Z" stroke="#FFFCB6"/>
<path d="M453.344 300.841C453.344 300.896 453.304 301.06 452.947 301.32C452.605 301.569 452.064 301.835 451.306 302.109C449.795 302.653 447.54 303.186 444.601 303.697C438.73 304.716 430.22 305.632 419.686 306.396C398.623 307.925 369.517 308.845 337.364 308.794C305.211 308.743 276.108 307.731 255.05 306.136C244.518 305.338 236.011 304.396 230.144 303.357C227.206 302.838 224.953 302.298 223.444 301.748C222.686 301.472 222.146 301.204 221.805 300.954C221.448 300.693 221.409 300.529 221.409 300.474C221.409 300.42 221.449 300.256 221.806 299.996C222.148 299.747 222.689 299.481 223.448 299.207C224.959 298.663 227.213 298.13 230.153 297.619C236.023 296.6 244.534 295.684 255.068 294.92C276.131 293.391 305.236 292.471 337.39 292.522C369.543 292.573 398.645 293.585 419.704 295.18C430.235 295.978 438.742 296.92 444.61 297.959C447.547 298.478 449.8 299.018 451.31 299.568C452.067 299.844 452.607 300.112 452.949 300.362C453.305 300.623 453.344 300.787 453.344 300.841Z" stroke="#FFFCB6"/>
<path d="M410.033 326.675C410.036 326.677 410.04 326.679 410.043 326.681C410.04 326.683 410.036 326.685 410.033 326.687C409.827 326.802 409.489 326.932 408.999 327.068C408.027 327.338 406.571 327.603 404.667 327.858C400.865 328.366 395.352 328.821 388.525 329.201C374.876 329.96 356.013 330.414 335.174 330.381C314.334 330.348 295.473 329.835 281.826 329.032C275 328.631 269.489 328.158 265.689 327.638C263.786 327.377 262.33 327.108 261.359 326.834C260.87 326.697 260.532 326.566 260.327 326.45C260.323 326.448 260.32 326.446 260.316 326.444C260.32 326.442 260.323 326.44 260.327 326.438C260.532 326.323 260.87 326.193 261.36 326.057C262.332 325.787 263.788 325.522 265.693 325.267C269.494 324.759 275.007 324.304 281.834 323.924C295.484 323.165 314.347 322.712 335.186 322.745C356.025 322.778 374.886 323.291 388.533 324.093C395.359 324.494 400.87 324.967 404.67 325.487C406.574 325.748 408.029 326.018 409 326.291C409.49 326.428 409.827 326.559 410.033 326.675Z" stroke="#FFFCB6"/>
</svg>
