<svg width="22" height="22" viewBox="0 0 22 22" fill="none" xmlns="http://www.w3.org/2000/svg">
<path d="M7.8923 10.417H3.03636C2.35757 10.4688 1 10.915 1 12.2846V18.3542M13.5314 18.8211C13.5314 20.4397 12.3827 20.9481 11.8084 21H2.72307C1.46993 21 1.05221 19.9624 1 19.4437V18.3542M13.5314 18.8211V14.1713M13.5314 18.8211L10.1969 15.7085M1 18.3542L4.05454 15.5529M2.87972 14.6191L4.05454 15.5529M11.6517 14.3078C11.1818 14.7556 11.0252 14.9303 10.1969 15.7085M10.1969 15.7085C9.54601 16.2467 8.91722 16.7699 8.51887 17.1092C7.64167 17.8562 6.48251 17.4204 6.01258 17.1092L4.05454 15.5529M18.3874 14.7747C18.0741 14.8266 17.2282 14.9614 16.351 15.086C15.4738 15.2105 14.2102 14.6191 13.6881 14.3078C12.9049 13.6334 11.4638 12.2534 11.3384 12.1289C11.2131 12.0044 9.61537 10.3132 8.83216 9.48317C8.20558 8.81914 7.31794 7.40807 6.95244 6.68178C6.20055 5.18771 6.74358 3.88039 7.10908 3.4135L8.51887 1.39027C9.14544 0.76774 9.89864 1.02713 10.1969 1.23464L12.2783 3.4135C12.5289 3.66251 12.5916 4.34729 12.5916 4.65856C12.5394 4.81419 12.341 5.31222 11.965 6.05925C11.5891 6.80629 12.0172 7.40807 12.2783 7.61558L14.9412 9.95007C15.3172 10.1991 16.0377 10.1576 16.351 10.1057C16.4062 10.0783 16.5168 10.0103 16.6643 9.89718M19.1706 14.3078L20.2895 13.5296M16.6643 9.89718C16.7959 9.79622 16.957 9.65931 17.1342 9.48317C17.5102 9.10966 18.2307 9.4313 18.544 9.63881C19.2228 10.2613 20.643 11.5998 20.8937 11.9733C21.1443 12.3468 20.8937 12.959 20.737 13.2184L20.2895 13.5296M16.6643 9.89718L20.2895 13.5296M8.67551 1.85718L12.2783 5.2811" stroke="#E6E6E6"/>
</svg>
