<svg width="19" height="22" viewBox="0 0 19 22" fill="none" xmlns="http://www.w3.org/2000/svg">
<path d="M1 14.5484V3.41935C1.05449 2.6129 1.55577 1 3.125 1H15.875C16.5833 1.05376 18 1.6129 18 3.41935V5.35484M18 6.80645V16.3226M18 16.3226C18 16.8065 17.6731 18.4194 16.0385 19.5484C14.4038 20.6774 13.1288 21 11.9519 21H11.4615M18 16.3226C17.2154 17.3548 15.9295 17.2903 15.3846 17.129C14.6 16.871 14.0769 17.0215 13.9135 17.129C13.8045 17.1828 13.5538 17.5484 13.4231 18.5806C13.2923 19.6129 12.0609 20.6237 11.4615 21M1 15.8387C1 16.1613 1 17.1935 1 18.7419C1 20.2903 2.52564 20.8925 3.28846 21H11.4615" stroke="#E6E6E6"/>
<path d="M8.68262 6.96777C8.90057 7.18283 9.49992 7.4839 10.1538 6.96777" stroke="#E6E6E6" stroke-width="0.1"/>
<path d="M13.6633 6.48383C13.6633 8.64991 11.8115 10.4274 9.49989 10.4274C7.18828 10.4274 5.33643 8.64991 5.33643 6.48383C5.33643 4.31776 7.18828 2.54028 9.49989 2.54028C11.8115 2.54028 13.6633 4.31776 13.6633 6.48383Z" stroke="#E6E6E6" stroke-width="0.5"/>
<ellipse cx="7.04811" cy="6.80654" rx="0.326923" ry="0.645161" fill="#E6E6E6"/>
<ellipse cx="11.9519" cy="6.80654" rx="0.326923" ry="0.645161" fill="#E6E6E6"/>
<line x1="3.125" y1="15.9114" x2="12.6058" y2="15.9114" stroke="#E6E6E6" stroke-width="0.5"/>
<line x1="3.45215" y1="17.8467" x2="11.6252" y2="17.8467" stroke="#E6E6E6" stroke-width="0.5"/>
<line x1="4.59619" y1="13.0081" x2="14.077" y2="13.0081" stroke="#E6E6E6" stroke-width="0.5"/>
</svg>
